<?xml version="1.0" standalone="no"?>
<!DOCTYPE svg PUBLIC "-//W3C//DTD SVG 20010904//EN"
 "http://www.w3.org/TR/2001/REC-SVG-20010904/DTD/svg10.dtd">
<svg version="1.0" xmlns="http://www.w3.org/2000/svg"
 width="700.000000pt" height="700.000000pt" viewBox="0 0 700.000000 700.000000"
 preserveAspectRatio="xMidYMid meet">
<metadata>
Created by potrace 1.14, written by Peter Selinger 2001-2017
</metadata>
<g transform="translate(0.000000,700.000000) scale(0.100000,-0.100000)"
fill="#000000" stroke="none">
<path d="M3167 6205 l-179 -295 -529 0 -529 0 0 165 0 165 -410 0 -410 0 0
-165 0 -165 -210 0 -210 0 0 -821 0 -821 81 76 c187 173 428 295 699 353 129
27 439 25 572 -5 132 -29 234 -65 351 -123 140 -70 237 -139 355 -255 l102
-101 31 56 c119 210 276 380 471 508 379 249 854 298 1283 132 451 -174 778
-574 872 -1064 23 -123 23 -367 -1 -490 -57 -292 -183 -531 -394 -744 l-112
-114 10 -55 c30 -162 -1 -374 -74 -520 -20 -39 -36 -74 -36 -77 0 -3 302 -5
670 -5 l670 0 0 2035 0 2035 -651 2 -651 3 -177 290 -176 290 -620 2 -620 2
-178 -294z m1188 145 c39 -6 85 -15 103 -21 l32 -11 0 -133 0 -134 -38 -10
c-94 -26 -212 -35 -462 -35 -320 0 -488 18 -512 57 -13 21 -9 243 5 255 17 14
105 31 217 42 118 11 561 5 655 -10z m-2435 -830 l0 -170 -490 0 -490 0 0 170
0 170 490 0 490 0 0 -170z"/>
<path d="M4007 4781 c-27 -6 -27 -7 24 -31 162 -76 262 -265 230 -436 -49
-265 -323 -417 -585 -325 -112 39 -214 137 -256 248 -31 79 -32 205 -3 280 20
49 20 52 3 43 -33 -17 -190 -172 -234 -229 -51 -66 -126 -190 -126 -206 0 -8
26 -15 68 -18 152 -15 335 -76 471 -159 203 -123 362 -322 417 -523 20 -76 29
-253 16 -325 -6 -30 -10 -56 -9 -56 1 -1 34 6 72 16 98 26 258 26 359 0 156
-40 312 -147 412 -282 l42 -57 74 77 c200 209 304 458 315 753 7 172 -5 272
-49 409 -140 440 -527 763 -983 819 -96 12 -212 13 -258 2z"/>
<path d="M1305 3720 c-949 -262 -1080 -300 -1078 -317 3 -25 441 -1615 447
-1621 5 -4 65 8 119 24 16 5 17 -7 17 -160 l0 -166 264 0 264 0 4 -114 c3
-105 5 -117 27 -140 222 -236 1448 -278 1888 -66 127 62 123 53 123 310 0 202
-1 219 -20 243 -20 25 -20 40 -20 906 l0 881 -400 0 -399 0 -14 48 c-8 26 -40
143 -72 260 -32 116 -61 212 -64 211 -3 0 -492 -135 -1086 -299z m1955 -1119
l0 -818 -65 25 -65 26 0 146 0 146 -27 26 c-37 34 -62 46 -158 78 l-80 27 -3
92 -3 92 -32 -3 -32 -3 -3 -84 -3 -83 -32 5 c-18 4 -54 9 -80 13 l-48 6 2 104
c1 111 -3 124 -51 149 -37 19 -134 42 -212 50 l-68 7 0 94 0 94 -40 0 -40 0 0
-99 0 -98 -54 -7 c-75 -8 -152 -35 -181 -62 -24 -22 -25 -29 -25 -132 l0 -109
-67 -12 c-38 -6 -78 -14 -90 -17 -22 -6 -23 -4 -23 60 l0 67 -32 -3 -33 -3 -5
-74 -5 -73 -53 -20 c-28 -11 -68 -34 -87 -52 l-35 -33 0 -157 0 -156 -53 -24
c-78 -34 -126 -80 -133 -127 l-7 -39 -216 2 -216 3 -3 898 -2 897 1180 0 1180
0 0 -819z"/>
<path d="M2236 2911 c-3 -27 -2 -60 4 -75 12 -33 40 -35 40 -1 0 37 -21 125
-30 125 -4 0 -10 -22 -14 -49z"/>
<path d="M2814 2575 c-3 -25 -3 -56 0 -70 7 -26 31 -43 43 -31 9 8 -17 146
-27 146 -5 0 -12 -20 -16 -45z"/>
<path d="M1747 2521 c-21 -67 -21 -72 -2 -97 13 -16 16 -17 25 -4 11 17 12 93
1 130 -7 22 -9 19 -24 -29z"/>
</g>
</svg>
